0
SECTION
2
HEADER
9
$INSUNITS
70
4
9
$ACADVER
1
AC1014
9
$HANDSEED
5
FFFF
0
ENDSEC
0
SECTION
2
TABLES
0
TABLE
2
VPORT
5
8
100
AcDbSymbolTable
0
ENDTAB
0
TABLE
2
LTYPE
5
5
100
AcDbSymbolTable
0
LTYPE
5
14
100
AcDbSymbolTableRecord
100
AcDbLinetypeTableRecord
2
BYBLOCK
70
0
0
LTYPE
5
15
100
AcDbSymbolTableRecord
100
AcDbLinetypeTableRecord
2
BYLAYER
70
0
0
ENDTAB
0
TABLE
2
LAYER
5
2
100
AcDbSymbolTable
70
2
0
LAYER
5
50
100
AcDbSymbolTableRecord
100
AcDbLayerTableRecord
2
0
70
0
6
CONTINUOUS
0
ENDTAB
0
TABLE
2
STYLE
5
3
100
AcDbSymbolTable
70
1
0
STYLE
5
11
100
AcDbSymbolTableRecord
100
AcDbTextStyleTableRecord
2
STANDARD
70
0
0
ENDTAB
0
TABLE
2
VIEW
5
6
100
AcDbSymbolTable
70
0
0
ENDTAB
0
TABLE
2
UCS
5
7
100
AcDbSymbolTable
70
0
0
ENDTAB
0
TABLE
2
APPID
5
9
100
AcDbSymbolTable
70
2
0
APPID
5
12
100
AcDbSymbolTableRecord
100
AcDbRegAppTableRecord
2
ACAD
70
0
0
ENDTAB
0
TABLE
2
DIMSTYLE
5
A
100
AcDbSymbolTable
70
1
0
ENDTAB
0
TABLE
2
BLOCK_RECORD
5
1
100
AcDbSymbolTable
70
1
0
BLOCK_RECORD
5
1F
100
AcDbSymbolTableRecord
100
AcDbBlockTableRecord
2
*MODEL_SPACE
0
BLOCK_RECORD
5
1B
100
AcDbSymbolTableRecord
100
AcDbBlockTableRecord
2
*PAPER_SPACE
0
ENDTAB
0
ENDSEC
0
SECTION
2
BLOCKS
0
BLOCK
5
20
100
AcDbEntity
100
AcDbBlockBegin
2
*MODEL_SPACE
0
ENDBLK
5
21
100
AcDbEntity
100
AcDbBlockEnd
0
BLOCK
5
1C
100
AcDbEntity
100
AcDbBlockBegin
2
*PAPER_SPACE
0
ENDBLK
5
1D
100
AcDbEntity
100
AcDbBlockEnd
0
ENDSEC
0
SECTION
2
ENTITIES
0
LWPOLYLINE
5
100
100
AcDbEntity
8
OUTER_PROFILES
100
AcDbPolyline
90
32
70
1
43
0.0
10
-86.099999999999994
20
-1.5000000000000124
10
-129.34424747816422
20
-1.5000000000000124
10
-129.34424747816422
20
-101.8
10
39.344247478164185
20
-101.80000000000004
10
39.344247478164149
20
-1.5000000000000568
10
-3.9000000000000057
20
-1.5000000000000124
10
-3.9000000000000057
20
0.099999999999988987
10
-2.9966629547096324
20
0.099999999999997979
42
-0.96718618573599568
10
-5.7558124932910459e-14
20
-2.2551405187698492e-16
10
340.10000000000002
20
6.2172489379008766e-14
10
340.09999999999991
20
49.444247478164165
10
341.69999999999993
20
49.444247478164165
10
341.69999999999993
20
45.444247478164158
10
361.09999999999991
20
45.444247478164158
10
361.09999999999991
20
89.10684747816417
10
258.85575252183583
20
89.10684747816417
10
258.85575252183583
20
59.406847478164167
10
305.09999999999997
20
59.40684747816416
10
305.09999999999997
20
57.806847478164165
10
28.400000000000034
20
57.806847478164165
10
28.399999999999963
20
59.406847478164167
10
74.644247478164118
20
59.40684747816416
10
74.644247478164118
20
89.10684747816417
10
-121.50000000000006
20
89.10684747816417
10
-121.50000000000006
20
45.444247478164158
10
-102.10000000000008
20
45.444247478164158
10
-102.10000000000008
20
49.444247478164165
10
-100.50000000000004
20
49.444247478164165
10
-100.49999999999997
20
1.7763568394002505e-14
10
-90.000000000000071
20
0
42
-0.96718618573599624
10
-87.003337045290507
20
0.099999999999993677
10
-86.100000000000065
20
0.099999999999997868
0
CIRCLE
5
101
100
AcDbEntity
8
INTERIOR_PROFILES
100
AcDbCircle
10
-265.85575252183583
20
65.456847478164164
30
0
40
1.7500000000000071
210
0
220
0
230
-1
0
CIRCLE
5
102
100
AcDbEntity
8
INTERIOR_PROFILES
100
AcDbCircle
10
-67.644247478164132
20
65.456847478164164
30
0
40
1.7499999999999982
210
0
220
0
230
-1
0
CIRCLE
5
103
100
AcDbEntity
8
INTERIOR_PROFILES
100
AcDbCircle
10
-51.644247478164118
20
65.456847478164164
30
0
40
1.7499999999999982
210
0
220
0
230
-1
0
CIRCLE
5
104
100
AcDbEntity
8
INTERIOR_PROFILES
100
AcDbCircle
10
-265.85575252183583
20
81.456847478164164
30
0
40
1.7500000000000071
210
0
220
0
230
-1
0
CIRCLE
5
105
100
AcDbEntity
8
INTERIOR_PROFILES
100
AcDbCircle
10
-67.644247478164132
20
81.456847478164164
30
0
40
1.7499999999999982
210
0
220
0
230
-1
0
CIRCLE
5
106
100
AcDbEntity
8
INTERIOR_PROFILES
100
AcDbCircle
10
-281.85575252183583
20
81.456847478164164
30
0
40
1.7500000000000071
210
0
220
0
230
-1
0
CIRCLE
5
107
100
AcDbEntity
8
INTERIOR_PROFILES
100
AcDbCircle
10
-51.644247478164118
20
81.456847478164164
30
0
40
1.7500000000000071
210
0
220
0
230
-1
0
CIRCLE
5
108
100
AcDbEntity
8
INTERIOR_PROFILES
100
AcDbCircle
10
-281.85575252183583
20
65.456847478164164
30
0
40
1.7500000000000071
210
0
220
0
230
-1
0
LWPOLYLINE
5
109
100
AcDbEntity
8
INTERIOR_PROFILES
100
AcDbPolyline
90
4
70
1
43
0.0
10
-114.199999994794
20
48.044247441206053
42
-0.99999999999999989
10
-114.19999999583625
20
55.044247441206082
10
-111.19999999889588
20
55.044247442099476
42
-0.99999999999999989
10
-111.19999999479397
20
48.044247442099497
0
LWPOLYLINE
5
110
100
AcDbEntity
8
INTERIOR_PROFILES
100
AcDbPolyline
90
4
70
1
43
0.0
10
353.79999999999995
20
79.506847478164332
10
350.80000000507681
20
79.50684747816463
42
-0.99999999999999989
10
350.79999999999995
20
86.50684747816419
10
353.80000000000007
20
86.506847478163991
42
-0.99999999999999989
0
LWPOLYLINE
5
111
100
AcDbEntity
8
INTERIOR_PROFILES
100
AcDbPolyline
90
4
70
1
43
0.0
10
-114.20000000000002
20
86.506847478164161
10
-111.19999999999997
20
86.50684747816419
42
-0.99999999999999989
10
-111.20000000253845
20
79.506847478164389
10
-114.20000000000002
20
79.506847478164175
42
-0.99999999999999989
0
LWPOLYLINE
5
112
100
AcDbEntity
8
INTERIOR_PROFILES
100
AcDbPolyline
90
4
70
1
43
0.0
10
350.79999999889588
20
55.044247442099483
10
353.79999999583623
20
55.044247441206082
42
-0.99999999999999989
10
353.79999999479389
20
48.044247441206053
10
350.7999999917343
20
48.044247442099525
42
-0.99999999999999989
0
LINE
5
113
100
AcDbEntity
8
BEND
100
AcDbLine
10
302.47787626091792
20
89.10684747816417
30
9.1038288019262836e-14
11
302.47787626091792
21
59.40684747816416
31
9.2148511043887993e-14
0
LINE
5
114
100
AcDbEntity
8
BEND
100
AcDbLine
10
-1.2778762609179495
20
-101.80000000000004
30
-2.0705659409259169e-13
11
-1.2778762609179495
21
-1.5000000000000213
31
-5.5511151231257827e-16
0
LINE
5
115
100
AcDbEntity
8
BEND
100
AcDbLine
10
-88.722123739082122
20
-1.4999999999999947
30
8.8817841970012523e-15
11
-88.722123739082122
21
-101.80000000000004
31
-1.9317880628477721e-13
0
LINE
5
116
100
AcDbEntity
8
BEND
100
AcDbLine
10
-100.49999999999997
20
46.82212373908208
30
8.8262730457699945e-14
11
340.09999999999997
21
46.82212373908208
31
8.7152507433074788e-14
0
LINE
5
117
100
AcDbEntity
8
BEND
100
AcDbLine
10
31.022123739082019
20
59.40684747816416
30
9.0518945392349181e-14
11
31.022123739082019
21
89.10684747816417
31
8.989229610923863e-14
0
LINE
5
118
100
AcDbEntity
8
BEND_EXTENT
100
AcDbLine
10
340.09999999999991
20
45
30
9.1038288019262836e-14
11
-100.49999999999997
21
45
31
9.1038288019262836e-14
0
LINE
5
119
100
AcDbEntity
8
BEND_EXTENT
100
AcDbLine
10
-86.899999999999977
20
-1.4999999999999947
30
-4.4408920985006262e-15
11
-86.900000000000048
21
-101.80000000000004
31
-2.0872192862952943e-13
0
LINE
5
120
100
AcDbEntity
8
BEND_EXTENT
100
AcDbLine
10
-3.1000000000000227
20
-101.80000000000004
30
-2.0872192862952943e-13
11
-3.1000000000000227
21
-1.4999999999999858
31
-6.6613381477509392e-15
0
LINE
5
121
100
AcDbEntity
8
BEND_EXTENT
100
AcDbLine
10
0.54424747816419483
20
-1.5000000000000302
30
0
11
0.54424747816419483
21
-101.80000000000004
31
-2.042810365310288e-13
0
LINE
5
122
100
AcDbEntity
8
BEND_EXTENT
100
AcDbLine
10
-90.544247478164195
20
-101.80000000000004
30
-1.9539925233402755e-13
11
-90.544247478164195
21
-1.5000000000000213
31
0
0
LINE
5
123
100
AcDbEntity
8
BEND_EXTENT
100
AcDbLine
10
-100.50000000000004
20
48.644247478164161
30
8.8817841970012523e-14
11
340.09999999999997
21
48.644247478164161
31
8.8817841970012523e-14
0
LINE
5
124
100
AcDbEntity
8
BEND_EXTENT
100
AcDbLine
10
304.29999999999995
20
89.10684747816417
30
8.8817841970012523e-14
11
304.29999999999995
21
59.40684747816416
31
8.8817841970012523e-14
0
LINE
5
125
100
AcDbEntity
8
BEND_EXTENT
100
AcDbLine
10
29.200000000000017
20
59.40684747816416
30
8.8817841970012523e-14
11
29.199999999999946
21
89.10684747816417
31
8.8817841970012523e-14
0
LINE
5
126
100
AcDbEntity
8
BEND_EXTENT
100
AcDbLine
10
300.65575252183584
20
59.406847478164167
30
5.3290705182007514e-14
11
300.65575252183584
21
89.10684747816417
31
5.3290705182007514e-14
0
LINE
5
127
100
AcDbEntity
8
BEND_EXTENT
100
AcDbLine
10
32.844247478164093
20
89.10684747816417
30
9.2173505601221497e-14
11
32.844247478164164
21
59.406847478164167
31
9.2282325512590611e-14
0
ENDSEC
0
SECTION
2
OBJECTS
0
DICTIONARY
5
C
100
AcDbDictionary
3
ACAD_GROUP
350
D
3
ACAD_MLINESTYLE
350
17
0
DICTIONARY
5
D
100
AcDbDictionary
0
DICTIONARY
5
1A
330
C
100
AcDbDictionary
0
DICTIONARY
5
17
100
AcDbDictionary
0
ENDSEC
0
EOF
